<svg id="Layer_1" data-name="Layer 1" xmlns="http://www.w3.org/2000/svg" viewBox="0 0 616.21 119.73"><defs><style>.cls-1{fill:#317bbf;}.cls-2{fill:#f55b5b;}</style></defs><title>Untitled-1</title><path class="cls-1" d="M686.19,644.85H653.78V636.5h5.57c1.56,0,2.12-.89,2.12-3.23V582.38c0-2.34-.56-3.12-2.12-3.12h-5.57v-8.35H686.3c20.16,0,28.17,5.35,28.17,18.6,0,8.91-4.79,14.48-14.81,16.7,12,1.78,17.82,7.79,17.82,18.37C717.48,638.72,708,644.85,686.19,644.85Zm-1-41.43c9,0,13.36-3.56,13.36-12,0-9-3.34-12.14-12.7-12.14h-9.13v24.16h8.46Zm-8.46,33.07h10.13c10.47,0,14.37-3.45,14.37-12.7,0-9.58-4.23-13.14-13.7-13.14h-10.8V636.5Z" transform="translate(-653.78 -526.56)"/><path class="cls-1" d="M737.63,620.57c0.33,10.13,5.34,16.82,15.48,16.82,7.68,0,12.14-3.9,14.7-10.47l8.46,3.79c-3,8.69-10.36,15.59-24.39,15.59-19.71,0-29.62-11.92-29.62-28.62,0-16.93,11.47-28.51,28.17-28.51,17.15,0,26.62,10.69,26.62,28.62v2.78H737.63ZM737.41,613h24.5c-0.22-11-3.56-15.26-11.47-15.26S738.08,602.31,737.41,613Z" transform="translate(-653.78 -526.56)"/><path class="cls-1" d="M802.88,601.42c2.56-8.69,8.24-12.25,14.7-12.25,8,0,13,5.12,13,13.14,0,7-4.23,11.69-10.58,11.69a7.38,7.38,0,0,1-2.23-14.48,5.56,5.56,0,0,0-3.67-1.11c-7.35,0-11.14,6.79-11.14,18.15v17c0,2.56.67,2.9,1.89,2.9h5.23v8.35h-29V636.5h4.9c1.22,0,1.89-.33,1.89-2.9V602.31c0-2.67-.45-3.34-1.89-3.34h-5.23v-8.35h9a69.32,69.32,0,0,0,13-1.11v11.92Z" transform="translate(-653.78 -526.56)"/><path class="cls-1" d="M855.77,600.31c3.45-7.46,9.69-11.14,18.37-11.14,11.47,0,17.59,6.68,17.59,20.27V633.6c0,2.56.67,2.9,1.89,2.9h4.9v8.35H870.47V636.5h4.34c1.22,0,1.89-.33,1.89-2.9V609.77c0-7.57-2.78-10.8-8.91-10.8-7.46,0-11.8,5.57-11.8,17.71V633.6c0,2.56.67,2.9,1.89,2.9h4.34v8.35H834.17V636.5h4.9c1.22,0,1.89-.33,1.89-2.9V602.31c0-2.67-.45-3.34-1.89-3.34h-4.9v-8.35h8.69a67,67,0,0,0,12.92-1.11v10.8Z" transform="translate(-653.78 -526.56)"/><path class="cls-1" d="M927.37,636.5h5.57c1.56,0,2.12-.56,2.12-3.23V582.38c0-2.56-.56-3.12-2.12-3.12h-5.57v-8.35h32.07c20.16,0,29.51,6.9,29.51,21.83,0,15.59-8.8,22.16-29.62,22.16h-9v18.37c0,2.67.56,3.23,2.12,3.23h6.12v8.35H927.37V636.5Zm22.94-29.73h9.35c9.35,0,12.92-3.9,12.92-13.92s-3.56-13.58-12.92-13.58h-9.35v27.5Z" transform="translate(-653.78 -526.56)"/><path class="cls-1" d="M1009.88,598.52a9,9,0,0,1,2.12,6c0,4.9-3.79,8.13-8.69,8.13-5.68,0-9.24-3.12-9.24-8.91,0-10.69,11.58-14.59,25.61-14.59,16.82,0,23.94,5.12,23.94,18.38V633.6c0,2.12.45,2.9,1.78,2.9h4.68v8.35h-18a27.47,27.47,0,0,1-3.34-9.24c-2.78,5.9-10.8,10.69-19.82,10.69-10.24,0-16.37-6.24-16.37-14.25,0-13.58,13.7-17.82,36.08-21.16v-3.12c0-7.24-3.67-10.13-11.58-10.13A24.2,24.2,0,0,0,1009.88,598.52Zm18.71,23.16v-4.23c-13.47,1.89-21.49,4.57-21.49,12,0,4.68,3,7.57,7.79,7.57C1023.25,637.05,1028.48,630.82,1028.59,621.69Z" transform="translate(-653.78 -526.56)"/><path class="cls-1" d="M1056.54,629.37V599h-7.35v-7.46s4.57-.33,4.23-0.33c3.79-.67,6.24-2.12,6.68-6.12l1.11-9.8h10.36v15.37h10.8V599h-11.14v30.18c0,5.9,2.12,7.91,6.9,7.91a14.63,14.63,0,0,0,5.12-.89v8.57a34.24,34.24,0,0,1-9.69,1.45C1061.33,646.19,1056.54,641.51,1056.54,629.37Z" transform="translate(-653.78 -526.56)"/><path class="cls-1" d="M1111.88,599.86c3.45-7.24,9.69-10.69,18.15-10.69,11.58,0,17.59,6.57,17.59,20V633.6c0,2.56.67,2.9,1.89,2.9h4.9v8.35h-28.06V636.5h4.34c1.22,0,1.89-.33,1.89-2.9V609.88c0-7.57-2.67-10.91-8.91-10.91-7.46,0-11.8,5.9-11.8,17.93v16.7c0,2.56.67,2.9,1.89,2.9h4.34v8.35h-28.06V636.5h4.9c1.22,0,1.89-.33,1.89-2.9v-51c0-2.67-.45-3.34-1.89-3.34h-5.23v-8.35H1099a67.09,67.09,0,0,0,12.92-1.11v30.07Z" transform="translate(-653.78 -526.56)"/><path class="cls-2" d="M1270,575.59a49,49,0,1,0-84.33,34h0l0.65,0.65h0L1221,644.93l34.67-34.67h0l0.52-.52h0A48.86,48.86,0,0,0,1270,575.59Zm-49,22.35a22.35,22.35,0,1,1,22.35-22.35A22.35,22.35,0,0,1,1221,597.95Z" transform="translate(-653.78 -526.56)"/></svg>