<svg id="Layer_1" data-name="Layer 1" xmlns="http://www.w3.org/2000/svg" viewBox="0 0 922.09 582.21"><defs><style>.cls-1{fill:#317bbf;}.cls-1,.cls-2{stroke:#fff;stroke-linecap:round;stroke-linejoin:round;}.cls-2{fill:#45b8ff;}</style></defs><title>Untitled-3</title><g id="fl"><path id="FL-2" data-name="FL" class="cls-1" d="M754.36,432l2.27,7.32,3.73,9.74,5.33,9.38,3.72,6.3,4.85,5.5,4,3.72,1.62,2.91-1.13,1.29L778,479.48l2.91,7.44,2.91,2.91,2.59,5.33,3.56,5.82,4.53,8.24,1.29,7.6,0.48,12,0.65,1.78L796.57,534l-2.42,1.29,0.32,1.94-0.65,1.94,0.32,2.42,0.48,1.94-2.75,3.23-3.07,1.45-3.88.16L783.48,550l-2.42,1-1.29-.48-1.13-1-0.32-2.91-0.81-3.39L774.1,538l-3.56-2.26-3.88-.32-0.81,1.29-3.07-4.36-0.65-3.56-2.59-4-1.78-1.13-1.62,2.1-1.78-.32-2.1-5-2.91-3.88-2.91-5.33-2.59-3.07-3.56-3.72,2.1-2.42,3.23-5.5-0.16-1.62-4.53-1-1.62.65,0.32,0.65,2.59,1-1.45,4.53-0.81.48-1.78-4-1.29-4.85-0.32-2.75,1.45-4.69v-9.54L735,471.56l-1.29-3.07-5.17-1.29-1.94-.65L725,464l-3.39-1.62L720.43,459l-2.75-1-2.42-3.72-4.2-1.45-2.91-1.45h-2.59l-4,.81-0.16,1.94,0.81,1-0.48,1.13L698.6,456l-3.72,3.56-3.56,1.94h-3.88l-3.23,1.29-0.32-2.75-1.62-1.94L679.37,457l-1.62-1.45-8.08-3.88-7.6-1.78-4.36.65-6,.48-6,2.1-3.48.61-0.24-8-2.59-1.94L637.66,442l0.32-3.07,10.18-1.29,25.54-2.91,6.79-.65,5.44,0.28,2.59,3.88,1.45,1.45,8.1,0.52,10.82-.65,21.51-1.29,5.45-.67,5.11,0.2,0.43,2.91,2.23,0.81,0.23-4.63-1.53-4.17,1.31-1.44,5.55,0.45,5.17,0.32h0Zm12.55,132.41,2.42-.65,1.29-.24,1.45-2.34,2.34-1.62,1.29,0.48,1.7,0.32,0.4,1.05-3.48,1.21-4.2,1.45-2.34,1.21-0.89-.89h0Zm13.5-5,1.21,1.05,2.75-2.1,5.33-4.2,3.72-3.88,2.51-6.63,1-1.7,0.16-3.39-0.73.48-1,2.83-1.45,4.61-3.23,5.25-4.36,4.2-3.39,1.94-2.51,1.54h0Z"/></g><g id="nh"><path id="NH-2" data-name="NH" class="cls-1" d="M875.35,135.31l0.87-1.08,1.09-3.29-2.54-.91L874.28,127l-3.88-1.13-0.32-2.75L862.8,99.64,858.2,85.1h-0.9l-0.65,1.62L856,86.22l-1-1-1.45,1.94,0,5,0.31,5.67,1.94,2.75v4l-3.72,5.06-2.59,1.13V112l1.13,1.78v8.57l-0.81,9.21-0.16,4.85,1,1.29-0.16,4.53L850,144l1,0.71,16.79-4.42,2.17-.6,1.84-2.77,3.61-1.61h0Z"/></g><g id="MI"><path id="MI-" class="cls-1" d="M692.41,170.13l-3.23-8.24-2.26-9.05-2.42-3.23-2.59-1.78-1.62,1.13-3.88,1.78-1.94,5-2.75,3.72-1.13.65-1.45-.65s-2.59-1.45-2.42-2.1,0.48-5,.48-5l3.39-1.29,0.81-3.39,0.65-2.59,2.42-1.62-0.32-10-1.62-2.26-1.29-.81-0.81-2.1,0.81-.81,1.62,0.32,0.16-1.62-2.42-2.26-1.29-2.59H666.7l-4.53-1.45-5.5-3.39h-2.75l-0.65.65-1-.48-3.07-2.26-2.91,1.78-2.91,2.26,0.32,3.56,1,0.32,2.1,0.48,0.48,0.81-2.59.81-2.59.32-1.45,1.78-0.32,2.1,0.32,1.62,0.32,5.5-3.56,2.1-0.65-.16v-4.2l1.29-2.42,0.65-2.42-0.81-.81-1.94.81-1,4.2-2.75,1.13-1.78,1.94-0.16,1,0.65,0.81-0.65,2.59-2.26.48v1.13l0.81,2.42-1.13,6.14-1.62,4,0.65,4.69,0.48,1.13-0.81,2.42-0.32.81-0.32,2.75,3.56,6,2.91,6.47,1.45,4.85-0.81,4.69-1,6-2.42,5.17-0.32,2.75-3.26,3.09,4.41-.16,21.42-2.26,7.28-1,0.1,1.67,6.85-1.21,10.3-1.5,3.85-.46,0.14-.59,0.16-1.45,2.1-3.72,2-1.74-0.22-5.05,1.6-1.6,1.09-.34,0.22-3.56,1.54-3,1.05,0.61,0.16,0.65,0.81,0.16,1.94-1-0.32-9.54h0Z"/><path id="SP-" class="cls-1" d="M576.17,74.95L578,72.89l2.17-.8,5.37-3.89,2.29-.57,0.46,0.46-5.14,5.14-3.32,1.94-2.06.91-1.6-1.14h0Zm86.17,32.13,0.65,2.51,3.23,0.16,1.29-1.21a3.39,3.39,0,0,0-.4-1.62,14.55,14.55,0,0,1-1.62-1.86l-2.18.24-1.62.16-0.32,1.13,1,0.48h0Zm-100.3-3,0.72-.58,2.75-.81,3.56-2.26v-1l0.65-.65,6-1,2.42-1.94,4.36-2.1,0.16-1.29,1.94-2.91,1.78-.81L587.65,87l2.26-2.26,4.36-2.42,4.69-.48L600.1,83l-0.32,1-3.72,1L594.6,88l-2.26.81-0.48,2.42-2.42,3.23-0.32,2.59,0.81,0.48,1-1.13,3.56-2.91,1.29,1.29H598l3.23,1,1.45,1.13,1.45,3.07,2.75,2.75,3.88-.16,1.45-1,1.62,1.29,1.62,0.48,1.29-.81h1.13l1.62-1,4-3.56,3.39-1.13,6.63-.32,4.53-1.94,2.59-1.29,1.45,0.16v5.66l0.48,0.32,2.91,0.81,1.94-.48,6.14-1.62,1.13-1.13,1.45,0.48v7l3.23,3.07,1.29,0.65,1.29,1-1.29.32-0.81-.32-3.72-.48-2.1.65-2.26-.16-3.23,1.45h-1.78L641,109.34l-5.17.16-1.94,2.59-7,.65-2.42.81-1.13,3.07-1.29,1.13-0.48-.16L620.14,116l-4.53,2.42H615l-1.13-1.62-0.81.16-1.94,4.36-1,4-3.18,7-1.18-1-1.37-1L602.45,120l-3.54-1.37-2.05-2.29-12.12-2.74-2.86-1-8.23-2.17-7.89-1.14L562,104.1h0Z"/></g><g id="vt"><path id="VT-2" data-name="VT" class="cls-1" d="M839,146.95l0.32-5.35-2.89-10.78-0.65-.32-2.91-1.29,0.81-2.91-0.81-2.1-2.7-4.64,1-3.88-0.81-5.17L827.94,104l-0.81-4.92,26.42-6.73,0.31,5.52,1.92,2.74v4l-3.71,5.06-2.59,1.14V112l1.31,1.52-0.31,8.1-0.61,9.26-0.23,5.56,1,1.29-0.16,4.57L850,144l1,0.73-7.44,1.51-4.5.72h0Z"/></g><g id="me"><path id="ME-2" data-name="ME" class="cls-1" d="M917.39,71.72l1.94,2.1,2.26,3.72v1.94l-2.1,4.69-1.94.65-3.39,3.07-4.85,5.5H908c-0.65,0-1-2.1-1-2.1l-1.78.16-1,1.45-2.42,1.45-1,1.45,1.62,1.45-0.48.65-0.48,2.75-1.94-.16V98.88l-0.32-1.29-1.45.32L896,94.67,893.95,96l1.29,1.45,0.32,1.13-0.81,1.29,0.32,3.07,0.16,1.62-1.62,2.59-2.91.48-0.32,2.91-5.33,3.07-1.29.48-1.62-1.45-3.07,3.56,1,3.23-1.45,1.29-0.16,4.36-1.12,6.26-2.46-1.16-0.48-3.07L870.48,126l-0.32-2.75-7.27-23.44-4.7-14.64L859.6,85l1.51,0.41V82.84l1.31-4.5L865,73.66l1.45-4-1.94-2.42v-6l0.81-1,0.81-2.75L866,56l-0.16-4.85,1.78-4.85,2.91-8.89,2.1-4.2h1.29l1.29,0.16v1.13l1.29,2.26,2.75,0.65,0.81-.81v-1l4-2.91L885.86,31l1.45,0.16,6,2.42,1.94,1,9.05,29.91h6l0.81,1.94,0.16,4.85,2.91,2.26H915l0.16-.48-0.48-1.13,2.75-.16h0Zm-20.93,30.15,1.54-1.54,1.37,1.05,0.57,2.42-1.7.89Zm6.71-5.9,1.78,1.86s1.29,0.08,1.29-.24,0.24-2,.24-2l0.89-.81L906.56,93l-2,.73Z"/></g><path id="DE" class="cls-1" d="M820.17,221.17l0.37-2.15,0.38-1.69-1.62.4-1.62.47L815.47,220l1.72,5,2.26,5.66,2.1,9.7,1.62,6.3,5-.16,6.14-1.18-2.26-7.39-1,.48L827.54,236l-1.78-4.69-1.94-3.56-3.15-2.87-0.86-2.1,0.37-1.62h0Z"/><path id="MD" class="cls-1" d="M834.34,245.3l-6,1.2-5.14.12-1.84-6.92-1.92-9.17-2.57-6.19-1.29-4.4-7.51,1.62-14.88,2.82-37.45,7.55,1.13,5,1,5.66,0.32-.32,2.1-2.42,2.26-2.62,2.42-.62,1.45-1.45,1.78-2.59,1.29,0.65,2.91-.32,2.59-2.1,2-1.45,1.85-.48,1.64,1.13,2.91,1.45,1.94,1.78,1.21,1.54,4.12,1.7v2.91l5.5,1.29,1.14,0.54,1.41-2,2.88,2-1.28,2.48-0.77,4-1.78,2.59v2.1l0.65,1.78,5.06,1.36,4.31-.06,3.07,1,2.1,0.32,1-2.1-1.45-2.1V250.7l-2.42-2.1-2.1-5.5,1.29-5.33-0.16-2.1-1.29-1.29s1.45-1.62,1.45-2.26a10.18,10.18,0,0,1,.48-2.1l1.94-1.29,1.94-1.62,0.48,1-1.45,1.62-1.29,3.72,0.32,1.13,1.78,0.32,0.48,5.5-2.1,1,0.32,3.56,0.48-.16,1.13-1.94,1.62,1.78-1.62,1.29-0.32,3.39,2.59,3.39,3.88,0.48,1.62-.81,3.24,4.18,1.36,0.54,6.65-2.8,2-4-0.44-4.91h0Zm-16,9,1.13,2.51,0.16,1.78,1.13,1.86a3.91,3.91,0,0,0,.89-1.21c0-.32-0.73-3.07-0.73-3.07l-0.73-2.34-1.86.48h0Z"/><path id="VA" class="cls-1" d="M826.19,259L826,257l6.45-2.55-0.77,3.22-2.92,3.78L828.39,266l0.46,3.39-1.83,5-2.16,1.92-1.47-4.64,0.45-5.45,1.59-4.18,0.77-3.1h0Zm3.34,28.3-58.17,12.58-37.43,5.28-6.68-.38-2.59,1.93-7.34.22-8.38,1L698,309.48l10.47-5.61v-2.07l1.52-2.15,10.55-11.5,3.95,4.48,3.78,1,2.54-1.14,2.24-1.31,2.54,1.34,3.91-1.43,1.88-4.56L744,287l2.86-2.13,1.8,0.49,2.83-3.68,0.35-2.08-1-1.28,1-1.87,5.27-12.28,0.62-5.74L759,258l2.18,2.44,3.94-.3,1.93-7.57,2.79-.56,1-2.74,2.58-2.35,2.77-5.7,0.08-5.07,9.82,3.82c0.68,0.34.83-5,.83-5l3.65,1.6,0.07,2.94,5.78,1.3,2.13,1.18,1.66,2.06-0.65,3.65-1.95,2.59,0.11,2.06,0.59,1.85,5,1.27,4.45,0,3.07,1,1.94,0.31,0.71,3.09,3.19,0.4,0.87,1.2-0.44,4.69,1.37,1.1L818,269.1l1.23,0.79L819,271.27l-2.69-.09,0.09,1.62,2.28,1.54,0.12,1.41,1.77,1.79,0.49,2.52-2.55,1.38,1.57,1.49,5.8-1.69,3.61,6h0Z"/><path id="OH" class="cls-1" d="M729.87,186.22l-6.09,4.05-3.88,2.26-3.39,3.72-4,3.88-3.23.81-2.91.48-5.5,2.59-2.1.16-3.39-3.07-5.17.65-2.59-1.45-2.38-1.35-4.89.7-10.18,1.62-11.21,2.18,1.29,14.63L662,231.82l2.59,23.44,0.57,4.83,4.12-.13,2.42-.81,3.36,1.5,2.07,4.36,5.14,0,1.89,2.12,1.76-.07,2.54-1.34,2.5,0.37,5.42,0.48,1.73-2.13,2.35-1.29,2.07-.68,0.65,2.75,1.78,1,3.48,2.34,2.18-.08,1.33-.49,0.18-2.76,1.59-1.45,0.1-4.79,1-4.11,1.3-.6,1.32,1.15,0.54,1.7,1.72-1,0.44-1.46-1.12-1.9,0.07-2.31,0.75-1.07L722,246l1.05-1.54,2.1,0.48,2.26-1.62,3.07-3.39,2.77-4.08,0.32-5.06,0.48-5-0.18-5.31-1-2.89,0.35-1.19,1.8-1.75-2.29-9-2.91-19.36h0Z"/><path id="IL" class="cls-1" d="M614.09,293.23l0-3.23,0.57-4.65,2.33-2.92,1.87-4.08,2.23-4-0.37-5.25-2-3.54-0.1-3.35,0.69-5.27-0.83-7.18L617.45,234l-1.29-15-0.92-11.64-0.27-.92-0.81-2.59-1.29-3.72-1.62-1.78-1.45-2.59-0.23-5.49-45.8,2.6,0.23,2.37,2.29,0.69,0.91,1.14,0.46,1.83,3.89,3.43,0.69,2.29L571.53,208l-1.83,3.66L569,214.21,566.73,216l-1.83.69-5.26,1.37L559,219.93,558.27,222l0.69,1.37,1.83,1.6-0.23,4.12-1.83,1.6-0.69,1.6V235l-1.83.46-1.6,1.14L554.38,238l0.23,2.06-1.71,1.31-1,2.8,0.46,3.66,2.29,7.32,7.32,7.54,5.49,3.66-0.23,4.34,0.91,1.37,6.4,0.46,2.74,1.37-0.69,3.66-2.29,5.94-0.69,3.2,2.29,3.89,6.4,5.26,4.57,0.69,2.06,5,2.06,3.2-0.91,3,1.6,4.12,1.83,2.06,1.41-.88,0.91-2.07,2.21-1.75,2.13-.61,2.6,1.18,3.63,1.38,1.19-.3,0.2-2.26-1.29-2.41,0.3-2.38,1.84-1.35,3-.81,1.26-.46-0.61-1.39-0.79-2.35,1.43-1,1.16-3.21h0Z"/><path id="NC" class="cls-1" d="M829.53,287.2l2.09,4.92,3.56,6.47,2.42,2.42,0.65,2.26-2.42.16,0.81,0.65-0.32,4.2-2.59,1.29-0.65,2.1-1.29,2.91-3.72,1.62-2.42-.32-1.45-.16-1.62-1.29,0.32,1.29v1h1.94l0.81,1.29-1.94,6.3h4.2l0.65,1.62,2.26-2.26,1.29-.48-1.94,3.56-3.07,4.85h-1.29l-1.13-.48-2.75.65-5.17,2.42-6.47,5.33-3.39,4.69-1.94,6.47-0.48,2.42-4.69.48-5.45,1.34-9.95-8.2-12.61-7.6-2.91-.81-12.61,1.45-4.28.75-1.62-3.23-3-2.12-16.49.48-7.27.81L714.56,341l-6.14,2.59-21.18,2.59,0.5-4.05,1.78-1.45,2.75-.65,0.65-3.72,4.2-2.75,3.88-1.45,4.2-3.56,4.36-2.1,0.65-3.07,3.88-3.88,0.65-.16s0,1.13.81,1.13a8.84,8.84,0,0,1,1.94.32l2.26-3.56,2.1-.65,2.26,0.32,1.62-3.56,2.91-2.59,0.48-2.1,0.19-3.65,4.28,0,7.2-.86,15.76-2.25,15.14-2.09L793.32,295l20-4.26,11.18-2.41,5-1.16h0Zm4.27,33.21,2.59-2.51,3.15-2.59,1.54-.65,0.16-2-0.65-6.14-1.45-2.34-0.65-1.86,0.73-.24,2.75,5.5,0.4,4.45-0.16,3.39-3.39,1.54L836,319.36l-1.13,1.21-1.05-.16h0Z"/><path id="MA" class="cls-1" d="M894.17,166.14l2.17-.69,0.46-1.71,1,0.11,1,2.29-1.26.46-3.89.11,0.46-.57h0Zm-9.37.8,2.29-2.63h1.6l1.83,1.49-2.4,1-2.17,1-1.14-.91h0ZM850,145l17.65-4.64,2.26-.65,1.91-2.8,3.74-1.66,2.89,4.41L876,144.79l-0.32,1.45,1.94,2.59,1.13-.81h1.78l2.26,2.59,3.88,6,3.56,0.48,2.26-1,1.78-1.78-0.81-2.75-2.1-1.62-1.45.81-1-1.29,0.48-.48,2.1-.16,1.78,0.81,1.94,2.42,1,2.91,0.32,2.42-4.2,1.45-3.88,1.94-3.88,4.53-1.94,1.45v-1l2.42-1.45,0.48-1.78-0.81-3.07L881.84,161,881,162.41l0.48,2.26-2.07,1-2.75-4.53-3.39-4.36L871.24,155l-6.53,1.88-5.09,1.05-20.68,4.59-0.67-4.77,0.65-10.59,4.29-.89L850,145h0Z"/><path id="TN" class="cls-1" d="M691.22,311.14l-51.89,5-15.76,1.78-4.62.51-3.87,0-0.22,4.1-8.19.26-7,.65-8.09-.12-1.41,7.07-1.7,5.48-3.29,2.75L583.88,343l-0.32,2.59-4,2.26L581,351.4l-1,4.36-1,.79,108.16-10.41,0.4-4,1.81-1.49,2.83-.75,0.67-3.72,4.1-2.7,4-1.49,4.08-3.57,4.44-2,0.52-3.07,4.06-4,0.55-.11s0,1.13.84,1.13a8.14,8.14,0,0,1,1.94.35l2.26-3.59,2.07-.65,2.28,0.3,1.6-3.53,3-2.64,0.42-1.94,0.31-3.71-2.15-.2-2.6,2-7,0-18.36,2.39-8.06,1.91h0Z"/><path id="AR" class="cls-1" d="M588.37,335.94l-4,.72-5.11-.63,0.42-1.6,3-2.57,0.94-3.66-1.83-3-78.42,2.51,1.6,6.86v8.23l1.37,11,0.23,37.84,2.29,1.94,3-1.37,2.74,1.14,0.68,6.57,55.62-1.14L572,396.7l-0.29-3.55-1.83-3,1.6-1.49-1.6-2.51,0.68-2.51,1.37-5.61,2.52-2.06-0.69-2.28,3.66-5.37L580.2,367l-0.11-1.49-0.35-1.83,2.86-5.6,2.4-1.26,0.38-3.43,1.77-1.24-3.14-.48-1.34-4,2.8-2.38,0.55-2,1.28-4,1.07-3.26h0Z"/><path id="MO" class="cls-1" d="M553,241l-2.52-3.09-1.14-2.29L485,238l-2.29.11,1.26,2.51-0.23,2.29,2.51,3.89,3.09,4.12,3.09,2.74,2.16,0.23,1.5,0.91v3l-1.83,1.6-0.46,2.29,2.06,3.43,2.51,3,2.51,1.83,1.37,11.66,0.31,36.07,0.23,4.69,0.46,5.38,22.43-.87,23.21-.69,20.8-.8,11.65-.23,2.17,3.43-0.68,3.31-3.09,2.4-0.57,1.84,5.38,0.46,3.89-.69,1.72-5.49,0.65-5.86,2.1-2.56,2.6-1.49,0.05-3.05,1-1.94L594.86,313l-1.33,1-2-2.23L590.25,307l0.8-2.52L589.11,301l-1.83-4.58-4.8-.8-7-5.6-1.72-4.11,0.8-3.2,2.06-6.06,0.46-2.86-1.95-1-6.86-.8-1-1.71L567.16,266l-5.49-3.43-7-7.77-2.29-7.32-0.23-4.23L553,241h0Z"/><path id="GA" class="cls-1" d="M666.84,348.44v2.18l0.16,2.1,0.65,3.39L671,364l2.42,9.86,1.45,6.14,1.62,4.85,1.45,7,2.1,6.3,2.59,3.39,0.48,3.39,1.94,0.81,0.16,2.1-1.78,4.85L683,415.93l-0.16,1.94,1.62,4.36,0.32,5.33L684,430l0.65,0.81,1.45,0.81,0.2,3.22,2.23,3.35,2.25,2.16,7.92,0.16,10.82-.65L731,438.57l5.45-.67,4.58,0,0.16,2.91,2.59,0.81,0.32-4.36-1.62-4.53,1.13-1.62,5.82,0.81,5,0.32-0.78-6.3,2.26-10,1.45-4.2-0.48-2.59,3.33-6.24-0.51-1.35-1.91.7L755.21,401l-0.65-2.1-1.29-3.56L751,393.2l-2.59-.65-1.62-4.85-2.92-6.33-4.2-1.94-2.1-1.94-1.29-2.59-2.1-1.94-2.26-1.29-2.26-2.91-3.07-2.26-4.53-1.78-0.48-1.45-2.42-2.91-0.48-1.45-3.39-5-3.52.1L708,351.67l-1.42-1.29-0.32-1.78,0.87-1.94,2.23-1.11-0.63-2.1-41.87,5h0Z"/><path id="SC" class="cls-1" d="M759.49,401.05l-1.78,1-2.59-1.29-0.65-2.1-1.29-3.56-2.26-2.1-2.59-.65-1.62-4.85-2.75-6-4.2-1.94-2.1-1.94L736.37,375l-2.1-1.94L732,371.79l-2.26-2.91-3.07-2.26-4.53-1.78-0.48-1.45-2.42-2.91L718.75,359l-3.39-5.17L712,354l-4-2.42-1.29-1.29-0.32-1.78,0.81-1.94,2.26-1-0.51-2.29,5.77-2.34,9.12-4.59,7.77-.81,16.11-.42,2.64,1.88,1.68,3.36,4.3-.61,12.61-1.45,2.91,0.81,12.61,7.6,10.11,8.12-5.42,5.46-2.59,6.14-0.48,6.3-1.62.81-1.13,2.75-2.42.65-2.1,3.56L776,383.27l-2.26,3.39-1.62.81-3.56,3.39-2.91.16,1,3.23-5,5.5-2.1,1.29h0Z"/><path id="AL" class="cls-1" d="M625.85,453.3L624.36,439l-2.75-18.75,0.16-14.06,0.81-31-0.16-16.65,0.17-6.42,44.48-3.62-0.15,2.18,0.16,2.1,0.65,3.39,3.39,7.92,2.42,9.86L675,380l1.62,4.85,1.45,7,2.1,6.3,2.59,3.39,0.48,3.39,1.94,0.81,0.16,2.1-1.78,4.85-0.48,3.23-0.16,1.94,1.62,4.36,0.32,5.33L684.06,430l0.65,0.81,1.45,0.81,0.33,2.89-5.6-.35-6.79.65-25.54,2.91-10.41,1.41L637.93,442l1.78,1.78,2.59,1.94,0.58,7.94-5.54,2.57-2.75-.32,2.75-1.94v-1l-3.07-6-2.26-.65-1.45,4.36-1.29,2.75-0.65-.16h-2.75Z"/><path id="LA" class="cls-1" d="M602.51,452l-3.28-3.17,1-5.5-0.66-.89-9.26,1-25,.46-0.68-2.39,0.91-8.46,3.32-5.95,5-8.69-0.57-2.4,1.26-.68,0.46-2-2.29-2.06-0.11-1.94-1.83-4.35-0.15-6.34-55.47.92,0,9.57,0.69,9.37,0.69,3.89,2.51,4.12,0.91,5,4.34,5.49,0.23,3.2,0.69,0.69-0.69,8.46-3,5,1.6,2.06-0.69,2.51-0.69,7.32-1.37,3.2,0.12,3.62,4.69-1.52,12.11,0.21,10.35,3.56,6.47,1.13,3.72-1.45,3.23,1.13,3.23,1,0.81-2.1L561.94,474l-2.59.48-2.75-1.62s0.16-1.29.81-1.45,3.07-1,3.07-1l1.78,1.45,1.78-1,3.23,0.65,1.45,2.42,0.32,2.26,4.53,0.32,1.78,1.78L574.55,480l-1.29.81,1.62,1.62,8.41,3.56,3.56-1.29,1-2.42,2.59-.65,1.78-1.45,1.29,1,0.81,2.91-2.26.81,0.65,0.65L596,484.2l2.26-3.39,0.81-.48L597,480l0.81-1.62-0.16-1.45,2.1-.48,1.13-1.29,0.65,0.81s-0.16,3.07.65,3.07,4.2,0.65,4.2.65l4,1.94,1,1.45h2.91l1.13,1,2.26-3.07v-1.45h-1.29L613,476.76,607.2,476,604,473.69l1.13-2.75,2.26,0.32,0.16-.65-1.78-1v-0.48H609l1.78-3.07-1.29-1.94-0.32-2.75-1.45.16-1.94,2.1-0.65,2.59-3.07-.65-1-1.78,1.78-1.94,1.9-3.45L603.68,456l-1.17-4h0Z"/><path id="MS" class="cls-1" d="M626.11,452.23l-0.25,1.26h-5.17l-1.45-.81-2.1-.32-6.79,1.94-1.78-.81-2.59,4.2-1.1.78L603.74,456l-1.14-3.89-3.43-3.2,1.14-5.54-0.69-.91-1.83.23-7.92.87-24.55.37-0.77-2.23,0.87-8.38,3.12-5.67,5.23-9.14-0.45-2.43,1.24-.66,0.44-1.92-2.32-2.08-0.12-2.14-1.84-4.12-0.11-6L572,396.7l-0.22-3.42L570,390.2l1.53-1.48-1.57-2.5,0.46-1.65L572,378l2.49-2-0.64-2.37,3.66-5.3,2.83-1.36-0.22-1.68-0.29-1.68,2.88-5.57,2.35-1.23,0.15-.89L622.5,352l0.18,6.28L622.84,375,622,406l-0.16,14.06,2.75,18.75,1.48,13.4h0Z"/><path id="IA" class="cls-1" d="M563.74,192.47l0.26,2.79,2.22,0.58,1,1.23,0.5,1.86,3.79,3.36,0.69,2.39-0.67,3.42-1.58,3.23-0.8,2.74-2.17,1.6-1.72.57-5.58,1.86-1.39,3.85,0.73,1.37,1.84,1.68-0.28,4-1.76,1.54L558,232.22l0.13,2.78-1.89.46-1.63,1.1-0.28,1.35,0.28,2.11-1.55,1.12L550.59,238l-1.26-2.45-65.74,2.51-0.92.17-2.05-4.52-0.23-6.63-1.6-4.12-0.69-5.26-2.29-3.66-0.91-4.8-2.74-7.54L471,196.34l-1.37-2.17-1.6-2.74,2-4.84,1.37-5.72-2.74-2.06-0.46-2.74,0.91-2.51h1.71l82.65-1.27,0.83,4.18,2.25,1.56,0.26,1.42-2,3.39L555,186l2.51,3.8,2.53,1.29,3.08,0.5,0.66,0.83h0Z"/><path id="MN" class="cls-1" d="M469.78,121.71l-0.46-8.46-1.83-7.32-1.83-13.49-0.46-9.83-1.83-3.43-1.6-5V63.87L462.47,60l-1.82-5.45,30.13,0,0.32-8.24,0.65-.16L494,46.65,496,47.46l0.81,5.5,1.45,6.14,1.62,1.62h4.85L505,62.17l6.3,0.32v2.1h4.85l0.32-1.29,1.13-1.13,2.26-.65,1.29,1h2.91L528,65.08l5.33,2.42L535.72,68l0.48-1,1.45-.48,0.48,2.91,2.59,1.29,0.48-.48,1.29,0.16v2.1l2.59,1h3.07l1.62-.81L553,69.44l2.59-.48,0.81,1.78L556.9,72h1l1-.81,8.89-.32L569.51,74h0.65l0.71-1.08,4.44-.37-0.61,2.28-3.94,1.84-9.25,4.06-4.77,2-3.07,2.59-2.42,3.56L549,92.72l-1.78.81-4.53,5-1.29.16-4.33,2.76-2.46,3.21-0.23,3.19,0.09,8-1.38,1.69L528,121.35l-2.23,6,2.87,2.23,0.68,3.23L527.46,136l0.17,3.75,0.37,6.73,3,3h3.33l1.89,3.13,3.38,0.5,3.86,5.67,7.09,4.12,2.14,2.88,0.67,6.44-81.21,1.14-0.34-35.68-0.46-3-4.12-3.43-1.14-1.83v-1.6l2.06-1.6,1.37-1.37,0.23-3.2h0Z"/><path id="OK" class="cls-1" d="M374.89,313.71l-16.68-1.27-0.88,11,20.47,1.16,32.06,1.3-2.33,24.42-0.46,17.83,0.23,1.6,4.34,3.66,2.06,1.14,0.69-.23,0.69-2.06,1.37,1.83h2.06v-1.37l2.74,1.37-0.46,3.89,4.12,0.23,2.51,1.14,4.12,0.69,2.51,1.83,2.29-2.06,3.43,0.69,2.51,3.43h0.91v2.29l2.29,0.69,2.29-2.29,1.83,0.69h2.51l0.91,2.51,6.3,2.08,1.37-.69,1.83-4.12h1.14l1.14,2.06,4.12,0.69,3.66,1.37,3,0.91,1.83-.91,0.69-2.51h4.34l2.06,0.91,2.74-2.06h1.14l0.69,1.6h4.12l1.6-2.06,1.83,0.46,2.06,2.51,3.2,1.83,3.2,0.91,1.94,1.12-0.39-37.22-1.37-11-0.16-8.87-1.44-6.54-0.78-7.18-0.07-3.82-12.14.32-46.41-.46-45-2.06-24.29-1.37h0Z"/><path id="TX" class="cls-1" d="M356,323.46l22.69,1.09,31.09,1.14-2.33,23.46-0.3,18.15,0.07,2.08,4.34,3.82,2,1.45,1.18-.56,0.37-1.82,1.14,1.8,2.11,0v-1.45l1.67,1,1.14,0.41-0.36,4,4.09,0.09,2.93,1.2,4,0.53,2.38,2.08,2.12-2.08,3.72,0.61,2.22,3.22,1.07,0.32-0.16,2,2.21,0.79,2.33-2.05,2.13,0.61,2.23,0,0.93,2.44,6.33,2.11,1.59-.77L462.4,385h0.34l0.91,0.08,1.23,2.07,3.93,0.67,3.34,1.12,3.43,1.2,1.84-1,0.71-2.51,4.45,0,1.81,0.93,2.8-2.11,1.1,0,0.85,1.61h4.05l1.52-2,1.87,0.41,1.95,2.4,3.52,2,2.86,0.81,1.51,0.8,2.45,2,3-1.33,2.69,1.14,0.56,6.11,0,9.7,0.69,9.53,0.7,3.61,2.68,4.42,0.9,5,4.22,5.54,0.2,3.14,0.75,0.79-0.73,8.38-2.87,5,1.53,2.15L522.55,459l-0.67,7.4-1.5,3.34,0.29,3.5L515,474.85l-9.86,4.53-1,1.94-2.59,1.94-2.1,1.45-1.29.81-5.66,5.33-2.75,2.1-5.33,3.23-5.66,2.42-6.3,3.39-1.78,1.45L464.89,507l-3.39.65-3.88,5.5-4,.32-1,1.94,2.26,1.94-1.45,5.5-1.29,4.53L451,531.27l-0.81,4.53,0.81,2.42,1.78,7,1,6.14,1.78,2.75-1,1.45-3.07,1.94-5.66-3.88-5.5-1.13-1.29.48-3.23-.65-4.2-3.07-5.17-1.13-7.6-3.39-2.1-3.88-1.29-6.47-3.23-1.94-0.65-2.26,0.65-.65,0.32-3.39-1.29-.65-0.65-1,1.29-4.36-1.62-2.26L407,516.56l-3.39-4.36-3.56-6.63-4.2-2.59L396,501l-5.33-12.29-0.81-4.2-1.78-1.94-0.16-1.45-6-5.33-2.59-3.07v-1.13l-2.59-2.1L370,468.39l-7.44-.65-3.07-2.26L355,467.25l-3.56,1.45-2.26,3.23-1,3.72-4.36,6.14-2.42,2.42-2.59-1L337,482.13l-1.94-.65-3.88-2.26v-0.65l-1.78-1.94-5.17-2.1-7.44-7.76-2.26-4.69V454l-3.23-6.47-0.48-2.75-1.62-1-1.13-2.1-5-2.1L301.77,438l-7.11-7.92-1.29-3.23-4.69-2.26-1.45-4.36-2.59-2.91-1.94-.48L282,412.14l8,0.69,29,2.74,29,1.6,2.23-19.46,3.89-55.56,1.6-18.75,1.37,0m99,229.66L455.67,546l-2.75-7.19-0.57-7,1.54-8.24,3.31-6.87,3.48-5.42,3.15-3.56,0.65,0.24-4.77,6.63-4.36,6.55-2,6.63L453,532.89,453.9,539l2.59,7.19L457,551.4l0.16,1.45-0.89.24h0Z"/><path id="KS" class="cls-1" d="M502.43,317.27l-12.62.2L443.72,317,399.16,315l-24.63-1.26,3.89-64.59,22.08,0.68,40.29,0.84,44.3,1h5.1l2.18,2.16,2,0,1.64,1-0.06,3-1.83,1.73-0.33,2.23,1.84,3.4,3,3.2,2.33,1.61,1.3,11.24,0.19,36.09h0Z"/><path id="NE" class="cls-1" d="M480.64,233.59l3.23,7-0.13,2.3,3.46,5.49,2.72,3.15h-5l-43.48-.94-40.79-.89-22.25-.78,1.07-21.33-32.32-2.92,4.34-44,15.55,1,20.12,1.14L404.95,184l23.78,1.14,10.75-.46,2.06,2.29,4.8,3,1.14,0.91,4.34-1.37,3.89-.46,2.74-.23,1.83,1.37,4.06,1.6,3,1.6,0.46,1.6,0.91,2.06h1.83l0.8,0,0.89,4.68,2.92,8.47,0.57,3.76,2.52,3.77,0.57,5.11,1.61,4.24,0.25,6.47h0Z"/><path id="CO" class="cls-1" d="M374.58,313.85l4.9-86.32L266.09,214.88l-12.21,87.94Z"/><path id="NV" class="cls-1" d="M190.94,178.46L167.3,307.29l-1.83.35L163.9,310h-2.37l-1.47-2.74-2.62-.38-0.77-1.11-1-.05-2.78,1.64-0.31,6.79L152.17,320l-0.35,8.59-1.45,2.09-2.44-1.07L78.86,225.38l19-67.58,93.09,20.67h0Z"/><g id="hi"><path id="HI-2" data-name="HI" class="cls-2" d="M227.63,512.2l1.94-3.56,2.26-.32,0.32,0.81-2.1,3.07h-2.42Zm10.18-3.72,6.14,2.59,2.1-.32,1.62-3.88L247,503.47l-4.2-.48-4,1.78Zm30.72,10,3.72,5.5,2.42-.32,1.13-.48,1.45,1.29,3.72-.16,1-1.45L279,521.09l-1.94-3.72-2.1-3.56-5.82,2.91Zm20.21,8.89,1.29-1.94,4.69,1,0.65-.48,6.14,0.65-0.32,1.29-2.59,1.45-4.36-.32-5.5-1.62h0Zm5.33,5.17,1.94,3.88,3.07-1.13,0.32-1.62-1.62-2.1-3.72-.32v1.29h0Zm7-1.13,2.26-2.91L308,531l4.36,1.13,4.36,2.75v1.94l-3.56,1.78-4.85,1-2.42-1.45ZM317.68,547l1.62-1.29,3.39,1.62,7.6,3.56,3.39,2.1,1.62,2.42,1.94,4.36,4,2.59L341,563.61l-3.88,3.23-4.2,1.45-1.45-.65-3.07,1.78-2.42,3.23-2.26,2.91-1.78-.16-3.56-2.59L318,568.29l0.65-2.42L317,560.21l-2.1-1.78-0.16-2.59,2.26-1,2.1-3.07,0.48-1L318,549.06l-0.32-2.1h0Z"/></g><g id="ak"><path id="AK-2" data-name="AK" class="cls-2" d="M152.62,446.56l-0.32,85.36,1.62,1,3.07,0.16,1.45-1.13H161l0.16,2.91,7,6.79,0.48,2.59,3.39-1.94,0.65-.16L173,539l1.45-1.62,1.13-.16,1.94-1.45,3.07,2.1,0.65,2.91,1.94,1.13,1.13,2.42,3.88,1.78,3.39,6,2.75,3.88,2.26,2.75,1.45,3.72,5,1.78,5.17,2.1,1,4.36,0.48,3.07-1,3.39-1.78,2.26-1.62-.81-1.45-3.07-2.75-1.45L199.34,573l-0.81.81,1.45,2.75,0.16,3.72-1.13.48-1.94-1.94-2.1-1.29,0.48,1.62,1.29,1.78-0.81.81a3.4,3.4,0,0,1-1.29-1c-0.49-.65-2.1-3.39-2.1-3.39l-1-2.26s-0.32,1.29-1,1a4.45,4.45,0,0,1-1.29-1.45l1.78-1.94-1.45-1.45v-5h-0.81L188,569.59l-1.13.48-1-3.72-0.65-3.72-0.81-.48,0.32,5.66v1.13l-1.45-1.29-3.56-6-2.1-.48L177,557.46l-1.62-2.91-1.62-1.13v-2.26l2.1-1.29-0.48-.32-2.59.65-3.39-2.42-2.59-2.91L162,542.27l-4-2.59,1.29-3.23v-1.62l-1.78,1.62-2.91,1.13-3.72-1.13L145.19,534h-5.5l-0.65.48-6.47-3.88-2.1-.32-2.75-5.82-3.56.32-3.56,1.45,0.48,4.53,1.13-2.91,1,0.32-1.45,4.36,3.23-2.75,0.65,1.62-3.88,4.36-1.29-.32L120,533.54l-1.29-.81-1.29,1.13-2.75-1.78-3.07,2.1-1.78,2.1-3.39,2.1-4.69-.16-0.48-2.1,3.72-.65v-1.29l-2.26-.65,1-2.42,2.26-3.88v-1.78l0.16-.81,4.36-2.26,1,1.29h2.75l-1.29-2.59-3.72-.32-5,2.75-2.42,3.39-1.78,2.59-1.13,2.26-4.2,1.45-3.07,2.59-0.32,1.62,2.26,1,0.81,2.1-2.75,3.23L85,547.92l-7.76,4.2-2.1,1.13-5.33,1.13-5.33,2.26,1.78,1.29-1.45,1.45-0.48,1.13-2.75-1-3.23.16L57.57,562h-1l0.32-2.42-3.56,1.29-2.91,1-3.39-1.29-2.91,1.94H40.92l-2.1,1.29-1.62.81-2.1-.32-2.59-1.13-2.26.65-1,1-1.62-1.13v-1.94l3.07-1.29L37,561l4.36-1.62,2.1-2.1,2.91-.65,1.78-.81L50.94,556l1.62,1.29,1-.32,2.26-2.75,3.07-1,3.39-.65,1.29-.32,0.65,0.48H65l1.29-3.72,4-1.45,1.94-3.72,2.26-4.53,1.62-1.45,0.32-2.59-1.62,1.29-3.39.65-0.65-2.42-1.29-.32-1,1-0.16,2.91-1.45-.16-1.45-5.82-1.29,1.29-1.13-.48-0.32-1.94-4,.16-2.1,1.13L54,532.24l1.45-1.45,0.48-2.59-0.65-1.94,1.45-1,1.29-.16-0.65-1.78V519l-1-1-0.81,1.45H49.48L48,518.18l-0.65-3.88-2.1-3.56v-1l2.1-.81,0.16-2.1,1.13-1.13-0.81-.48-1.29.48L45.44,503l1-5,4.53-3.23,2.59-1.62,1.94-3.72,2.75-1.29,2.59,1.13,0.32,2.42,2.42-.32,3.23-2.42,1.62,0.65,1,0.65H71l2.26-1.29,0.81-4.36s0.32-2.91,1-3.39a4.47,4.47,0,0,0,1-1l-1.13-1.94-2.59.81-3.23.81-1.94-.48-3.56-1.78-5-.16L55,473.72l0.48-3.88,0.65-2.42L54,465.64l-1.94-3.72,0.48-.81,6.79-.48h2.1l1,1h0.65L62.9,460l3.88-.65,2.59,0.32,1.45,1.13-1.45,2.1-0.48,1.45L71.63,466l5,1.78,1.78-1-2.26-4.36-1-3.23,1-.81-3.39-1.94-0.48-1.13,0.48-1.62L72,449.8,69,445.11l-2.42-4.2L69.53,439h3.23l1.78,0.65,4.2-.16,3.72-3.56,1.13-3.07,3.72-2.42,1.62,1,2.75-.65,3.72-2.1,1.13-.16,1,0.81,4.53-.16,2.75-3.07h1.13l3.56,2.42,1.94,2.1-0.48,1.13,0.65,1.13,1.62-1.62,3.88,0.32,0.32,3.72,1.94,1.45,7.11,0.65,6.3,4.2,1.45-1,5.17,2.59,2.1-.65,1.94-.81,4.85,1.94,4.36,2.91h0ZM37.52,475.5l2.1,5.33-0.16,1-2.91-.32-1.78-4L33,476H30.57l-0.16-2.59L32.19,471l1.13,2.42,1.45,1.45ZM34.93,509l3.72,0.81,3.72,1,0.81,1-1.62,3.72-3.07-.16-3.39-3.56ZM14.24,494.9l1.13,2.59,1.13,1.62-1.13.81-2.1-3.07V494.9h1ZM0.5,568l3.39-2.26,3.39-1,2.59,0.32,0.48,1.62,1.94,0.48,1.94-1.94-0.32-1.62,2.75-.65,2.91,2.59-1.13,1.78-4.36,1.13L11.33,568l-3.72-1.13-4.36,1.45-1.62.32L0.5,568h0Zm49-4.53,1.62,1.94,2.1-1.62-1.45-1.29Zm2.91,3.07,1.13-2.26,2.1,0.32-0.81,1.94H52.39ZM76,564.58l1.45,1.78,1-1.13-0.81-1.94Zm8.73-12.45,1.13,5.82,2.91,0.81,5-2.91,4.36-2.59-1.62-2.42L97,548.41l-2.1,1.29L92,548.89l1.62-1.13,1.94,0.81,3.88-1.78,0.48-1.45-2.42-.81,0.81-1.94-2.75,1.94-4.69,3.56L86,551l-1.29,1.13h0Zm42.36-19.88,2.42-1.45-1-1.78-1.78,1Z"/></g><g id="ri"><path id="RI-2" data-name="RI" class="cls-2" d="M868.62,171.78l-3.7-15,6.27-1.85,2.19,1.93,3.31,4.32,2.69,4.4-3,1.62-1.29-.16L874,168.87l-2.42,1.94-2.91,1h0Z"/></g><g id="ny"><path id="NY-2" data-name="NY" class="cls-2" d="M824.93,181.63l-1.13-1-2.59-.16-2.26-1.94-1.63-6.13-3.46.09-2.44-2.71L792,174.2l-43,8.73-7.53,1.23-0.74-6.47,1.43-1.13,1.29-1.13,1-1.62,1.78-1.13,1.94-1.78,0.48-1.62,2.1-2.75,1.13-1-0.16-1-1.29-3.07-1.78-.16-1.94-6.14,2.91-1.78L754,152l4-1.29,3.23-.48,6.3-.16,1.94,1.29,1.62,0.16,2.1-1.29,2.59-1.13,5.17-.48,2.1-1.78,1.78-3.23,1.62-1.94h2.1l1.94-1.13,0.16-2.26-1.45-2.1-0.32-1.45,1.13-2.1v-1.45h-1.78l-1.78-.81-0.81-1.13-0.16-2.59,5.82-5.5,0.65-.81,1.45-2.91,2.91-4.53,2.75-3.72,2.1-2.42,2.42-1.83,3.08-1.25,5.5-1.29,3.23,0.16,4.53-1.45L827.51,99l0.52,5,2.42,6.47,0.81,5.17-1,3.88,2.59,4.53,0.81,2.1L832.88,129l2.91,1.29,0.65,0.32,3.07,11L839,146.7l-0.48,10.83,0.81,5.5,0.81,3.56,1.45,7.27v8.08l-1.13,2.26,1.84,2,0.8,1.68-1.94,1.78,0.32,1.29,1.29-.32,1.45-1.29,2.26-2.59,1.13-.65,1.62,0.65,2.26,0.16,7.92-3.88,2.91-2.75,1.29-1.45,4.2,1.62L864.4,184l-3.88,2.91-7.11,5.33-2.59,1L845,195.15l-4,1.13-1.17-.53-0.24-3.69,0.48-2.75-0.16-2.1-2.81-1.7-4.53-1-3.88-1.13-3.72-1.78h0Z"/></g><g id="pa"><path id="PA-2" data-name="PA" class="cls-2" d="M819.67,217.58l1.31-.27,2.33-1.25,1.21-2.48,1.62-2.26,3.23-3.07v-0.81l-2.42-1.62-3.56-2.42-1-2.59-2.75-.32-0.16-1.13-0.81-2.75,2.26-1.13,0.16-2.42-1.29-1.29,0.16-1.62,1.94-3.07V184l2.7-2.65-0.92-.67-2.52-.19-2.29-1.94-1.55-6.12-3.5.1-2.46-2.7L793.29,174l-43,8.73-8.89,1.45-0.62-6.52-5.36,5.07-1.29.48-4.2,3,2.91,19.14,2.48,9.73,3.57,19.26,3.27-.64,11.94-1.5L792,224.56l14.88-2.82,8.3-1.62,0.27-.24,2.1-1.62,2.1-.68h0Z"/></g><path id="NJ" class="cls-2" d="M824.23,181.35l-2.32,2.73v3.07L820,190.23l-0.16,1.62,1.29,1.29-0.16,2.42-2.26,1.13,0.81,2.75,0.16,1.13,2.75,0.32,1,2.59,3.56,2.42,2.42,1.62v0.81l-3,2.7-1.62,2.26L823.28,216,821,217.33l-0.46,1.6-0.24,1.21-0.61,2.61L820.8,225l3.23,2.91,4.85,2.26,4,0.65,0.16,1.45-0.81,1L832.6,236h0.81l2.1-2.42,0.81-4.85,2.75-4,3.07-6.47,1.13-5.5-0.65-1.13-0.16-9.38-1.62-3.39-1.13.81-2.75.32-0.48-.48,1.13-1,2.1-1.94,0.06-1.09L839.39,192l0.57-2.75-0.12-2L837,185.55l-5.09-1.18L827.81,183l-3.59-1.65h0Z"/><path id="WV" class="cls-2" d="M755.73,231.86l1.11,4.94,1.08,6,2.13-2.58,2.26-3.07,2.54-.62,1.45-1.45,1.78-2.59,1.45,0.65,2.91-.32,2.59-2.1,2-1.45,1.85-.48,1.3,1,3.64,1.82,1.94,1.78,1.37,1.29-0.76,5.55-5.83-2.54-4.25-1.62-0.1,5.18-2.75,5.54-2.53,2.43L769.73,252l-2.64.5-0.9,3.6-1,3.95-4,.34L758.86,258l-1.07.56L757.15,264l-1.35,3.53-5,11,0.9,1.16-0.21,1.91-2.81,3.88-1.81-.54L744,287l-2.54-.57-2,4.56a20.54,20.54,0,0,1-3.92,1.37c-0.16,0-2.47-1.25-2.47-1.25l-2.34,1.38-2.41,1-3.74-.89-1.12-1.17-2.19-3-3.14-2-1.71-3.62-4.28-3.47-0.65-2.26-2.59-1.45L708,274.07l-0.24-5.25,2.18-.08,1.94-.81,0.16-2.75,1.62-1.45,0.16-5,1-3.88,1.29-.65,1.29,1.13,0.48,1.78,1.78-1,0.48-1.62L719,252.73v-2.42l1-1.29,2.26-3.39,1.29-1.45,2.1,0.48,2.26-1.62,3.07-3.39,2.26-3.88,0.32-5.66,0.48-5V220.4l-1.13-3.07,1-1.45,1.28-1.29,3.49,19.83,4.63-.75,12.43-1.8h0Z"/><path id="IN" class="cls-2" d="M614.12,292.86l0.07-2.86,0.48-4.53,2.26-2.91,1.78-3.88,2.59-4.2-0.48-5.82L619,265.91l-0.32-3.23,0.81-5.5-0.48-7-1.29-16-1.29-15.36-1-11.72,3.07,0.89,1.45,1,1.13-.32,2.1-1.94,2.83-1.62,5.09-.16,22-2.26,5.58-.53,1.5,16L664.47,255l0.6,5.77L664.7,263l1.23,1.8,0.1,1.37-2.52,1.6L660,269.32l-3.2.55-0.6,4.87-4.57,3.31-2.8,4,0.32,2.38L648.53,286h-3.33l-1.59-1.62-2.49,1.26-2.68,1.5,0.16,3.05-1.19.26-0.47-1-2.17-1.5-3.25,1.34-1.55,3-1.44-.81-1.45-1.6-4.46.48-5.59,1-2.91,1.55h0Z"/><path id="CT" class="cls-2" d="M868.61,171.75l-3.68-14.88-4.72.92L839,162.54l1,3.23,1.45,7.27,0.18,9-1.22,2.17,1.92,1.93,4.27-3.91,3.56-3.23,1.94-2.1,0.81,0.65,2.75-1.45,5.17-1.13,7.79-3.18h0Z"/><path id="WI" class="cls-2" d="M609.61,190.26l-0.07-3.16-1.18-4.53-0.65-6.14L606.59,174l1-3.07,0.81-2.91,1.45-2.59L609.17,162l-0.65-3.56,0.48-1.78,1.94-2.42,0.16-2.75-0.81-1.29,0.65-2.59-0.45-4.17,2.75-5.66,2.91-6.79,0.16-2.26-0.32-1-0.81.48-4.2,6.3-2.75,4-1.94,1.78-0.81,2.26-2,.81-1.13,1.94-1.45-.32-0.16-1.78,1.29-2.42,2.1-4.69,1.78-1.62,1-2.36-2.56-1.9-2-10.37-3.55-1.34-1.95-2.31-12.13-2.72-2.88-1-8.21-2.17-7.92-1.16L562,104.13l-0.75.55-1.2-.16-0.65-1.13-1.33.3-1.13.16-1.78,1-1-.65,0.65-1.94,1.94-3.07L557.93,98,556,96.57l-2.1.81L551,99.32l-7.44,3.23-2.91.65-2.91-.48-1-.88-2.12,2.84-0.23,2.74v8.46l-1.14,1.6L528,121.36l-2.29,5.94,0.46,0.23,2.51,2.06,0.69,3.2-1.83,3.2v3.89l0.46,6.63,3,3h3.43l1.83,3.2,3.43,0.46,3.89,5.72,7.09,4.12,2.06,2.74,0.91,7.43,0.69,3.32,2.29,1.6,0.23,1.37-2.06,3.43,0.23,3.2,2.51,3.89,2.51,1.14,3,0.46,1.34,1.38,45.3-2.67h0Z"/><path id="KY" class="cls-2" d="M720.54,288.16l-2.29,2.4-3.58,4L709.74,300l-1.22,1.72-0.06,2.1L704.09,306l-5.66,3.39-7.23,1.8-51.87,4.9-15.76,1.78-4.62.51-3.87,0-0.23,4.22-8.18.14-7,.65-8-.06,1.21-1.32,2.5-1.54,0.23-3.2,0.91-1.83L595,312.88l0.8-1.91,2.26-1.78,2.1-.65,2.75,1.29,3.56,1.29,1.13-.32,0.16-2.26-1.29-2.42,0.32-2.26,1.94-1.45,2.59-.65,1.62-.65-0.81-1.78-0.65-1.94,1.51-1s1.25-3.52,1.24-3.66l3.05-1.48,5.32-1,4.49-.48,1.39,1.63L630,292.3l1.59-3.11,3.19-1.28L637,289.4l0.41,1,1.17-.26-0.16-3,3.13-1.75,2.15-1.07,1.53,1.66,3.32,0,0.59-1.57-0.37-2.26,2.6-4,4.78-3.44,0.71-4.84,2.93-.46,3.79-1.65,2.44-1.71-0.2-1.56L664.65,263l0.57-3,4.18-.12,2.3-.75,3.35,1.43L677.1,265h5.13l2.05,2.21,1.62-.15,2.6-1.28,5.24,0.57,2.57,0.22L698,264.5l2.62-1.43,1.88-.71,0.65,2.84,2,1.06,2.64,2.08,0.12,5.67,0.81,1.57,2.59,1.56,0.77,2.29,4.16,3.44,1.81,3.62,2.46,1.66h0Z"/><path id="NM" class="cls-2" d="M282.7,416.9l-0.78-4.75,8.64,0.53,30.17,2.95L348,417.31l2.22-18.71,3.86-55.88,1.74-19.39,1.57,0.13,0.83-11.16-104-10.64-17.5,120.43,15.46,2,1.29-10,29.23,2.83h0Z"/><path id="SD" class="cls-2" d="M471,196.91l0-.58-2.9-4.85,1.86-4.71,1.49-5.89-2.78-2.08-0.39-2.74,0.79-2.55,3.19,0-0.12-5-0.33-30.17-0.62-3.77-4.07-3.33-1-1.68L466,128l2-1.53,1.53-1.67,0.24-2.66-58.26-1.6-54.8-3.45-5.33,63.69,14.59,0.9L386,182.86l17.74,0.93,23.78,1.3,12-.42,2,2.25,5.19,3.25,0.76,0.72,4.54-1.45,6.54-.61,1.68,1.34,4.2,1.6,2.95,1.64,0.4,1.48,1,2.24,2.24-.2h0Z"/><path id="ND" class="cls-2" d="M469.85,121.81l-0.61-8.43-1.68-6.82-1.89-13-0.46-11-1.74-3.08-1.76-5.19,0-10.44L462.37,60l-1.83-5.47L431.89,54l-18.59-.65L386.79,52,363.84,49.9l-7,67.18,54.93,3.34,58.07,1.39h0Z"/><path id="WY" class="cls-2" d="M354.92,136.16L248.18,122.71,234.1,211.17l113.26,13.59Z"/><path id="MT" class="cls-2" d="M363.76,49.86L333.08,47l-29.26-3.56-29.26-4-32.33-5.33L223.8,30.72l-32.72-6.93L186.6,45.14,190,52.68l-1.37,4.57,1.83,4.57,3.2,1.37L198.3,74l2.7,3.18,0.46,1.14,3.43,1.14,0.46,2.06-7.09,17.6v2.51l2.51,3.2h0.91l4.8-3,0.69-1.14,1.6,0.69-0.23,5.26,2.74,12.57,3,2.51,0.91,0.69L217,124.7l-0.46,3.43,0.69,3.43,1.14,0.91,2.29-2.29h2.74l3.2,1.6,2.51-.91h4.12l3.66,1.6,2.74-.46,0.46-3,3-.69,1.37,1.37,0.46,3.2,1.43,0.83,1.89-11L355,136.16l8.8-86.3h0Z"/><path id="ID" class="cls-2" d="M143,169.37l8.77-35.22,1.37-4.23,2.51-5.94-1.26-2.29-2.51.11-0.8-1,0.46-1.14,0.34-3.09,4.46-5.49,1.83-.46,1.14-1.14,0.57-3.2,0.91-.69,3.89-5.83,3.89-4.34,0.23-3.77L165.4,89l-1.54-4.4,13.62-63.34L191,23.78,186.6,45.17l3.56,7.49-1.58,4.66,2,4.64,3.14,1.26,3.84,9.56L201,77.2l0.51,1.14,3.34,1.14,0.37,2.1-7,17.38-0.17,2.57,2.63,3.32,0.91,0,4.91-3,0.68-1.09,1.56,0.66-0.28,5.35,2.74,12.58,3.92,3.18,1.68,2.17-0.72,4.08,1.07,2.81,1.06,1.09,2.48-2.35,2.85,0,2.92,1.34,2.78-.68,3.79-.16,4,1.6,2.74-.3,0.5-3,2.93-.76,1.26,1.52,0.44,2.94,1.42,1.21L238,187.58s-88-16.7-95-18.2h0Z"/><path id="UT" class="cls-2" d="M254,303L170.3,291.12l20.59-112.54,46.78,8.75L236.18,198l-2.31,13.17,7.81,0.93,16.41,1.8,8.21,0.86Z"/><path id="AZ" class="cls-2" d="M139.46,375.52l-2.63,2.16-0.32,1.45,0.48,1,18.91,10.67,12.12,7.6,14.71,8.57,16.81,10,12.29,2.42,25,2.7L254,303,170.31,291l-3.09,16.41-1.61,0-1.71,2.63-2.51-.11-1.26-2.74-2.74-.34-0.91-1.14h-0.91l-0.91.57-1.94,1-0.11,7L152.35,316l-0.57,12.57-1.49,2.17-0.57,3.32,2.74,4.92,1.26,5.83,0.8,1,1,0.57-0.11,2.29-1.6,1.37-3.43,1.71-1.94,1.94L147,357.43l-0.57,4.92-2.86,2.74-2.06.69,0.14,0.83-0.46,1.71,0.46,0.8,3.66,0.57-0.57,2.74-1.49,2.17-3.77.91h0Z"/><path id="OR" class="cls-2" d="M143.27,168.42l8.85-34.8,1.05-4.23,2.35-5.62-0.62-1.16-2.51,0-1.28-1.67,0.46-1.46,0.5-3.25,4.46-5.49,1.83-1.1,1.14-1.14,1.49-3.57,4-5.67,3.57-3.86,0.23-3.45-3.27-2.47-1.78-4.64-12.66-3.61L136,77.63l-15.43.11-0.46-1.37-5.49,2.06-4.46-.57-2.4-1.6-1.26.69-4.69-.23-1.71-1.37-5.26-2.06-0.8.11-4.34-1.49-1.94,1.83-6.17-.34-5.94-4.12,0.69-.8,0.23-7.77L74.3,56.83l-4.12-.57L69.5,53.74l-2.35-.47-5.8,2.06L59.08,61.8l-3.23,10-3.23,6.47-5,14.06-6.47,13.58-8.08,12.61-1.94,2.91L30.3,130l0.39,12.08,112.58,26.32h0Z"/><path id="WA" class="cls-2" d="M96.62,0.5L101,2l9.7,2.75,8.57,1.94,20,5.66,23,5.66,15.22,3.21L163.84,84.75,151.4,81.23l-15.51-3.57-15.23,0-0.46-1.34-5.6,2.18-4.6-.74-2.15-1.58-1.31.66-4.74-.14-1.7-1.35-5.26-2.11-0.73.15-4.39-1.52L87.84,73.7l-6.27-.3-5.93-4.13,0.78-.93,0.12-7.68-2.28-3.84-4.12-.61-0.68-2.51-2.28-.46-3.55,1.23-2.26-3.22,0.32-2.91L64.45,48l1.62-4-2.59-1.13,0.16-3.72L68,38.49l-2.75-2.75L63.8,28.63l0.65-2.91V17.8l-1.78-3.23,2.26-9.38L67,5.67l2.42,2.91,2.75,2.59,3.23,1.94L80,15.21,83,15.86,86,17.31l3.39,1,2.26-.16V15.7l1.29-1.13L95,13.27l0.32,1.13,0.32,1.78-2.26.48-0.32,2.1,1.78,1.45L96,22.65l0.65,1.94,1.45-.16,0.16-1.29-1-1.29-0.48-3.23,0.81-1.78-0.65-1.45V13.11l1.78-3.56L97.59,7,95.16,2.12l0.32-.81,1.13-.81h0Zm-9.46,6,2-.16,0.48,1.37L91.2,6.07h2.34l0.81,1.54-1.54,1.7,0.65,0.81-0.73,2-1.37.4s-0.89.08-.89-0.24a18.46,18.46,0,0,1,1.45-2.59l-1.7-.57L89.91,10.6l-0.73.65L87.65,9Z"/><g id="ca"><path id="CA-2" data-name="CA" class="cls-2" d="M139.24,375.09l3.94-.49,1.49-2,0.54-2.94-3.55-.59-0.51-.67,0.48-2-0.16-.59,1.92-.62,3-2.83,0.58-5,1.38-3.4,1.94-2.17,3.52-1.59,1.65-1.6,0.07-2.11-1-.58-1-1.07-1.16-5.85-2.69-4.83,0.57-3.51-2.42-1L78.8,225.4l18.9-67.6L30.63,142.1l-1.51,4.73L29,154.27l-5.17,11.8-3.07,2.59-0.32,1.13-1.78.81-1.45,4.2L16.35,178l2.75,4.2,1.62,4.2L21.84,190l-0.32,6.47-1.78,3.07-0.65,5.82-1,3.72L19.9,213l2.75,4.53,2.26,4.85,1.29,4-0.32,3.23-0.32.48v2.1l5.66,6.3-0.48,2.42-0.65,2.26-0.65,1.94,0.16,8.24,2.1,3.72,1.94,2.59,2.75,0.48,1,2.75-1.13,3.56-2.1,1.62H33L32.19,272l0.48,2.91,3.23,4.36,1.62,5.33L39,289.26l1.29,3.07,3.39,5.82,1.45,2.59,0.48,2.91,1.62,1V307L46.42,309l-1.78,7.11L44.15,318l2.42,2.75,4.2,0.48L55.31,323l3.88,2.1H62.1L65,328.22l2.59,4.85,1.13,2.26,3.88,2.1,4.85,0.81,1.45,2.1,0.65,3.23-1.45.65,0.32,1L81.66,346l2.75,0.16,3.16-1.69,3.88,4.2,0.81,2.26,2.59,4.2,0.32,3.23v9.38l0.48,1.78,10,1.45,19.72,2.75,13.85,1.35h0ZM51.11,331.37l1.29,1.54-0.16,1.29L49,334.12l-0.57-1.21-0.65-1.45,3.31-.08h0Zm1.94,0,1.21-.65,3.56,2.1L60.89,334l-0.89.65-4.53-.24-1.62-1.62L53,331.37h0Zm20.69,19.8,1.78,2.34,0.81,1,1.54,0.57,0.57-1.45-1-1.78-2.67-2-1.05.16v1.21Zm-1.45,8.65L74.06,363l1.21,1.94-1.45.24-1.29-1.21a8.87,8.87,0,0,1-.73-1.86V359.9l0.48-.08h0Z"/></g></svg>