<svg id="Layer_1" data-name="Layer 1" xmlns="http://www.w3.org/2000/svg" viewBox="0 0 35 35"><defs><style>.cls-1{fill:#ff5700;}.cls-2{fill:#fff;}</style></defs><title>reddit_icon</title><circle class="cls-1" cx="17.5" cy="17.5" r="17.5"/><path id="body_outline" data-name="body outline" class="cls-2" d="M22,25.21a9.68,9.68,0,0,0,1.84-.93A5.27,5.27,0,0,0,26.56,20a4.19,4.19,0,0,0-.05-0.65,2.3,2.3,0,1,0-2.71-3.7,11.54,11.54,0,0,0-5.75-1.68l1.19-3.76,3.23,0.76a1.9,1.9,0,1,0,.16-0.76l-3.56-.84a0.39,0.39,0,0,0-.46.26l-1.37,4.33a11.65,11.65,0,0,0-6,1.69,2.3,2.3,0,1,0-2.71,3.7,4.19,4.19,0,0,0-.05.65,5.27,5.27,0,0,0,2.72,4.33,9.68,9.68,0,0,0,1.84.93A13.09,13.09,0,0,0,22,25.21Z"/><g id="eyes"><circle class="cls-1" cx="14.67" cy="18.75" r="1.3"/><circle class="cls-1" cx="20.33" cy="18.75" r="1.3"/></g><path id="mouth" class="cls-1" d="M17.5,23.38a4.13,4.13,0,0,0,3-.94A0.36,0.36,0,1,0,20,21.93a3.49,3.49,0,0,1-2.52.73A3.48,3.48,0,0,1,15,21.93a0.36,0.36,0,1,0-.51.51A4.13,4.13,0,0,0,17.5,23.38Z"/></svg>