<svg id="Layer_1" data-name="Layer 1" xmlns="http://www.w3.org/2000/svg" viewBox="0 0 35 35"><defs><style>.cls-1{fill:#fff;}</style></defs><title>reddit_icon_white</title><path class="cls-1" d="M20.5,22h0a0.52,0.52,0,0,0-.37.15,3.64,3.64,0,0,1-2.63.75,3.63,3.63,0,0,1-2.62-.75,0.53,0.53,0,0,0-.74,0,0.52,0.52,0,0,0,0,.74A4.56,4.56,0,0,0,17.5,24a4.57,4.57,0,0,0,3.37-1.05A0.52,0.52,0,0,0,20.5,22Z"/><circle class="cls-1" cx="14.44" cy="18.85" r="1.54"/><circle class="cls-1" cx="20.56" cy="18.85" r="1.54"/><path class="cls-1" d="M17.5,0A17.5,17.5,0,1,0,35,17.5,17.5,17.5,0,0,0,17.5,0Zm9,19.3a4.2,4.2,0,0,1,.05.65,5.27,5.27,0,0,1-2.72,4.33,9.67,9.67,0,0,1-1.84.93,13.09,13.09,0,0,1-9,0,9.68,9.68,0,0,1-1.84-.93A5.27,5.27,0,0,1,8.44,20a4.18,4.18,0,0,1,.05-0.65,2.3,2.3,0,1,1,2.71-3.7,11.65,11.65,0,0,1,6-1.69l1.37-4.33a0.39,0.39,0,0,1,.46-0.26l3.56,0.84a1.9,1.9,0,1,1-.16.76l-3.23-.76-1.19,3.76A11.54,11.54,0,0,1,23.8,15.6,2.3,2.3,0,1,1,26.51,19.3Z"/></svg>