<svg id="Layer_1" data-name="Layer 1" xmlns="http://www.w3.org/2000/svg" viewBox="0 0 35 35"><defs><style>.cls-1{fill:#fff;}</style></defs><title>Untitled-2</title><path class="cls-1" d="M19.93,10.67a3.54,3.54,0,0,0-2.38,3.56l0,0.61L17,14.76a9.93,9.93,0,0,1-5.82-2.87l-0.81-.8-0.21.59a3.57,3.57,0,0,0,.76,3.66c0.49,0.52.38,0.59-.46,0.28a1.45,1.45,0,0,0-.57-0.14,4.44,4.44,0,0,0,.44,1.66A4,4,0,0,0,12,18.72L12.57,19H11.86c-0.68,0-.71,0-0.64.27a3.7,3.7,0,0,0,2.29,2l0.76,0.26-0.66.4a6.85,6.85,0,0,1-3.28.91,3.59,3.59,0,0,0-1,.1,9.34,9.34,0,0,0,2.36,1.09,10.31,10.31,0,0,0,8-.91,10.75,10.75,0,0,0,4.07-4.8,12.75,12.75,0,0,0,.83-3.71c0-.57,0-0.64.72-1.32a8.06,8.06,0,0,0,.86-1c0.12-.24.11-0.24-0.51,0-1,.37-1.19.32-0.67-0.23a3.6,3.6,0,0,0,.83-1.32,0.66,0.66,0,0,0-.39.14,6.76,6.76,0,0,1-1.08.42l-0.66.21-0.6-.41a5,5,0,0,0-1-.54A4.18,4.18,0,0,0,19.93,10.67ZM17.5,35A17.5,17.5,0,1,1,35,17.5,17.5,17.5,0,0,1,17.5,35Z"/></svg>