<?xml version="1.0" encoding="utf-8"?>
<!-- Generator: Adobe Illustrator 19.2.0, SVG Export Plug-In . SVG Version: 6.00 Build 0)  -->
<svg version="1.1" id="Layer_1" xmlns="http://www.w3.org/2000/svg" xmlns:xlink="http://www.w3.org/1999/xlink" x="0px" y="0px"
	 viewBox="0 0 592.9 63.5" style="enable-background:new 0 0 592.9 63.5;" xml:space="preserve">
<style type="text/css">
	.st0{fill:#777777;}
</style>
<g>
	<path class="st0" d="M78.5,62.4V1h28.7c13.4,0,20.6,9,20.6,19.8c0,10.7-7.4,19.8-20.6,19.8H91.5v21.8H78.5z M114.5,20.8
		c0-5.2-3.9-8.3-9-8.3H91.5v16.6h13.9C110.6,29.1,114.5,25.9,114.5,20.8z"/>
	<path class="st0" d="M135,31.8C135,13.3,148.5,0,167,0c18.6,0,32.1,13.3,32.1,31.8S185.6,63.5,167,63.5
		C148.5,63.5,135,50.3,135,31.8z M185.7,31.8c0-11.5-7.4-20.2-18.7-20.2c-11.3,0-18.6,8.7-18.6,20.2c0,11.4,7.3,20.2,18.6,20.2
		C178.3,51.9,185.7,43.2,185.7,31.8z"/>
	<path class="st0" d="M208.4,62.4V1h13.1v49.9h26v11.5H208.4z"/>
	<path class="st0" d="M257.5,62.4V1h13.1v61.4H257.5z"/>
	<path class="st0" d="M279.8,31.8c0-18.9,14.3-31.8,32.7-31.8c13.5,0,21.4,7.4,25.7,15L327,20.5c-2.6-5-8.1-8.9-14.5-8.9
		c-11.1,0-19.2,8.6-19.2,20.2s8.1,20.2,19.2,20.2c6.4,0,11.9-3.9,14.5-8.9l11.2,5.4c-4.4,7.6-12.2,15.1-25.7,15.1
		C294.1,63.5,279.8,50.6,279.8,31.8z"/>
	<path class="st0" d="M390.1,62.4V36.7h-29v25.8H348V1h13.1v24.1h29V1h13.2v61.4H390.1z"/>
	<path class="st0" d="M462.7,62.4L458.9,52h-26.3l-3.9,10.4h-14.9L437.6,1H454l23.7,61.4H462.7z M445.8,14.1l-9.6,26.4h19.2
		L445.8,14.1z"/>
	<path class="st0" d="M523.1,62.4L511,40.6h-9.6v21.8h-13.1V1h28.7c12.8,0,20.6,8.4,20.6,19.8c0,10.9-6.8,16.7-13.4,18.2l13.8,23.4
		H523.1z M524.4,20.8c0-5.2-4-8.3-9.2-8.3h-13.7v16.6h13.7C520.4,29.1,524.4,26,524.4,20.8z"/>
	<path class="st0" d="M561.8,62.4V12.5h-18V1h49v11.5H575v49.9H561.8z"/>
	<rect x="52.3" y="1" class="st0" width="13.1" height="61.4"/>
	<rect x="26.2" y="21.9" class="st0" width="13.1" height="40.5"/>
	<rect y="42.2" class="st0" width="13.1" height="20.3"/>
</g>
</svg>
